<svg width="17" height="20" viewBox="0 0 17 20" version="1.1" xmlns="http://www.w3.org/2000/svg" xmlns:xlink="http://www.w3.org/1999/xlink">
<title>calendar</title>
<desc>Created using Figma</desc>
<g id="Canvas" transform="translate(-806 -397)">
<g id="calendar">
<g id="Icone-Depart">
<use xlink:href="#path0_fill" transform="translate(806.001 397)" fill="#1BA6D2"/>
</g>
</g>
</g>
<defs>
<path id="path0_fill" fill-rule="evenodd" d="M 3.99738 4.01138L 3.99738 0L 4.99701 0L 4.99701 4.01138L 3.99738 4.01138ZM 14.0067 4.97678L 14.0103 3.01105L 16.9954 3.01385L 16.9987 20L 0.000244141 20L 0.00115967 16.0002L 0.997986 15.9945L 1.01135 19.0092L 15.9993 19.0067L 16.0081 6.93909L 1.00842 6.96326L 1.00842 15.9719L 0 15.9857L 0.00140381 3.01385L 2.97064 3.01508L 2.97681 4.97183L 6.00049 4.97031L 6.00677 3.00375L 10.9993 3.01587L 10.9993 4.97678L 14.0067 4.97678ZM 11.9944 0L 11.9944 4.01138L 12.9941 4.01138L 12.9941 0L 11.9944 0ZM 13.9987 15L 10.9987 15L 10.9987 17L 13.9987 17L 13.9987 15ZM 6.99872 15L 9.99872 15L 9.99872 17L 6.99872 17L 6.99872 15ZM 5.99872 15L 2.99872 15L 2.99872 17L 5.99872 17L 5.99872 15ZM 10.9987 12L 13.9987 12L 13.9987 14L 10.9987 14L 10.9987 12ZM 9.99872 12L 6.99872 12L 6.99872 14L 9.99872 14L 9.99872 12ZM 2.99872 12L 5.99872 12L 5.99872 14L 2.99872 14L 2.99872 12ZM 13.9987 9L 10.9987 9L 10.9987 11L 13.9987 11L 13.9987 9ZM 6.99872 9L 9.99872 9L 9.99872 11L 6.99872 11L 6.99872 9ZM 5.99872 9L 2.99872 9L 2.99872 11L 5.99872 11L 5.99872 9Z"/>
</defs>
</svg>
