<svg width="64" height="64" viewBox="0 0 64 64" version="1.1" xmlns="http://www.w3.org/2000/svg" xmlns:xlink="http://www.w3.org/1999/xlink">
<title>Group</title>
<desc>Created using Figma</desc>
<g id="Canvas" transform="translate(-688 -857)">
<g id="Group">
<g id="backgroundColor">
<use xlink:href="#path0_fill" transform="translate(688 857)" fill="#E2F8FF"/>
</g>
<g id="2">
<g id="Shape">
<use xlink:href="#path1_fill" transform="translate(708 877)" fill="#93E5FF"/>
</g>
<g id="Shape">
<use xlink:href="#path2_fill" transform="translate(701.611 870.111)" fill="#93E5FF"/>
</g>
<g id="Shape">
<use xlink:href="#path3_fill" transform="translate(705.901 874.901)" fill="#00C2FF"/>
</g>
</g>
</g>
</g>
<defs>
<path id="path0_fill" fill-rule="evenodd" d="M 0 32C 0 14.3269 14.3269 0 32 0C 49.6731 0 64 14.3269 64 32C 64 49.6731 49.6731 64 32 64C 14.3269 64 0 49.6731 0 32Z"/>
<path id="path1_fill" fill-rule="evenodd" d="M 0 12C 0 18.627 5.37299 24 12 24C 18.627 24 24 18.627 24 12C 24 5.37299 18.627 0 12 0C 5.37299 0 0 5.37299 0 12ZM 22 12C 22 17.523 17.523 22 12 22C 6.47699 22 2 17.523 2 12C 2 6.47699 6.47699 2 12 2C 17.523 2 22 6.47699 22 12Z"/>
<path id="path2_fill" fill-rule="evenodd" d="M 19.0221 0.787109C 18.6711 -0.263855 18.1061 -0.260864 17.7561 0.787109L 15.3891 7.8891L 21.3891 7.8891L 19.0221 0.787109ZM 19.0221 36.9911C 18.6711 38.0421 18.1061 38.0391 17.7561 36.9911L 15.3891 29.8891L 21.3891 29.8891L 19.0221 36.9911ZM 35.9911 18.7561C 37.0391 19.1061 37.0421 19.6711 35.9911 20.0221L 28.8891 22.3891L 28.8891 16.3891L 35.9911 18.7561ZM 0.787109 20.0221C -0.263855 19.6711 -0.260864 19.1061 0.787109 18.7561L 7.8891 16.3891L 7.8891 22.3891L 0.787109 20.0221Z"/>
<path id="path3_fill" fill-rule="evenodd" d="M 27.9044 0.946472C 28.4774 0.0164795 28.1893 -0.282532 27.2523 0.294434L 10.5643 10.5635L 0.294312 27.2524C -0.278687 28.1824 0.00933838 28.4814 0.94635 27.9055L 17.6343 17.6354L 27.9044 0.946472ZM 14.6178 16.0316C 13.9275 16.2167 13.1909 16.0197 12.6854 15.5145C 11.9039 14.7335 11.9034 13.4669 12.6843 12.6855C 13.4653 11.904 14.7319 11.9036 15.5134 12.6844C 16.0189 13.1896 16.2165 13.9261 16.0318 14.6165C 15.847 15.3069 15.308 15.8463 14.6178 16.0316Z"/>
</defs>
</svg>
